<?xml version="1.0" standalone="no"?>
<!DOCTYPE svg PUBLIC "-//W3C//DTD SVG 20010904//EN"
 "http://www.w3.org/TR/2001/REC-SVG-20010904/DTD/svg10.dtd">
<svg version="1.0" xmlns="http://www.w3.org/2000/svg"
 width="512.000000pt" height="512.000000pt" viewBox="0 0 512.000000 512.000000"
 preserveAspectRatio="xMidYMid meet">
<metadata>
Created by potrace 1.14, written by Peter Selinger 2001-2017
</metadata>
<g transform="translate(0.000000,512.000000) scale(0.100000,-0.100000)"
fill="#000000" stroke="none">
<path d="M1039 4950 c-42 -9 -111 -31 -155 -50 -84 -37 -228 -114 -250 -133
-7 -7 -27 -23 -45 -37 -144 -109 -229 -254 -234 -397 -3 -100 17 -178 76 -292
70 -136 82 -157 129 -212 l41 -49 -44 -57 c-48 -65 -110 -157 -145 -218 -50
-87 -152 -304 -177 -375 -14 -41 -30 -84 -35 -95 -27 -64 -58 -227 -67 -350
-16 -213 -6 -401 32 -600 41 -215 149 -472 278 -665 96 -142 159 -195 341
-288 87 -44 102 -49 128 -40 37 13 47 40 36 93 -5 23 -8 71 -6 106 l3 64 34
-65 c120 -231 205 -334 396 -480 107 -82 319 -218 352 -226 31 -8 48 0 68 30
14 21 15 31 6 57 -6 18 -10 34 -8 35 2 2 24 -24 49 -59 91 -122 204 -219 380
-325 123 -74 320 -172 346 -172 34 0 259 132 432 254 100 71 246 213 315 308
27 37 50 66 51 65 2 -1 -6 -33 -18 -71 -24 -77 -16 -111 27 -122 30 -7 64 8
189 84 199 120 352 248 429 359 39 56 127 233 147 296 6 20 15 37 19 37 16 0
45 -96 50 -166 7 -82 21 -104 64 -104 75 0 324 248 478 477 123 181 212 451
255 768 20 149 2 382 -47 581 -52 216 -142 397 -346 692 l-84 122 60 71 c124
148 203 287 223 398 28 151 -49 311 -254 522 -145 150 -271 207 -468 214 -113
4 -183 -8 -279 -46 -65 -26 -234 -113 -273 -140 -14 -11 -29 -19 -32 -19 -9 0
-161 -103 -164 -112 -2 -4 -20 -1 -40 8 -70 29 -147 52 -232 68 -83 15 -120
20 -250 32 -75 6 -515 7 -545 0 -11 -2 -49 -7 -85 -10 -62 -6 -133 -17 -210
-32 -19 -3 -83 -20 -142 -36 l-107 -29 -78 77 c-235 230 -403 300 -614 254z"/>
</g>
</svg>
